<?xml version="1.0" encoding="UTF-8" standalone="no"?>
<!-- Created with Inkscape (http://www.inkscape.org/) -->

<svg
   width="727.56"
   height="300"
   viewBox="0 0 192.50025 79.375"
   version="1.1"
   id="svg1"
   inkscape:export-filename="draft2.png"
   inkscape:export-xdpi="96"
   inkscape:export-ydpi="96"
   inkscape:version="1.4.2 (2aeb623e1d, 2025-05-12)"
   sodipodi:docname="draft2.svg"
   xmlns:inkscape="http://www.inkscape.org/namespaces/inkscape"
   xmlns:sodipodi="http://sodipodi.sourceforge.net/DTD/sodipodi-0.dtd"
   xmlns="http://www.w3.org/2000/svg"
   xmlns:svg="http://www.w3.org/2000/svg">
  <sodipodi:namedview
     id="namedview1"
     pagecolor="#ffffff"
     bordercolor="#000000"
     borderopacity="0.25"
     inkscape:showpageshadow="2"
     inkscape:pageopacity="0.0"
     inkscape:pagecheckerboard="true"
     inkscape:deskcolor="#d1d1d1"
     inkscape:document-units="px"
     showborder="false"
     inkscape:zoom="0.7180275"
     inkscape:cx="362.79947"
     inkscape:cy="150.41207"
     inkscape:window-width="1920"
     inkscape:window-height="1011"
     inkscape:window-x="0"
     inkscape:window-y="0"
     inkscape:window-maximized="1"
     inkscape:current-layer="layer1" />
  <defs
     id="defs1">
    <inkscape:path-effect
       effect="offset"
       id="path-effect12"
       is_visible="true"
       lpeversion="1.3"
       linejoin_type="miter-clip"
       unit="px"
       offset="6"
       miter_limit="15"
       attempt_force_join="false"
       update_on_knot_move="true" />
    <inkscape:path-effect
       effect="fillet_chamfer"
       id="path-effect44"
       is_visible="true"
       lpeversion="1"
       nodesatellites_param="F,0,0,1,0,2.6458333,0,1 @ F,0,0,1,0,2.6458333,0,1 @ F,0,0,1,0,2.6458333,0,1 @ F,0,0,1,0,2.6458333,0,1 @ F,0,0,1,0,2.6458333,0,1 @ F,0,0,1,0,2.6458333,0,1 @ F,0,0,1,0,2.6458333,0,1 @ F,0,0,1,0,2.6458333,0,1 @ F,0,0,1,0,2.6458333,0,1 @ F,0,0,1,0,2.6458333,0,1 @ F,0,0,1,0,2.6458333,0,1 @ F,0,0,1,0,2.6458333,0,1 @ F,0,0,1,0,2.6458333,0,1"
       radius="10"
       unit="px"
       method="auto"
       mode="F"
       chamfer_steps="1"
       flexible="false"
       use_knot_distance="true"
       apply_no_radius="true"
       apply_with_radius="true"
       only_selected="false"
       hide_knots="false" />
    <inkscape:path-effect
       effect="fillet_chamfer"
       id="path-effect41"
       is_visible="true"
       lpeversion="1"
       nodesatellites_param="F,0,0,1,0,2.6458333,0,1 @ F,0,0,1,0,2.6458333,0,1 @ F,0,0,1,0,2.6458333,0,1 @ F,0,0,1,0,2.6458333,0,1 @ F,0,0,1,0,2.6458333,0,1 @ F,0,0,1,0,2.6458333,0,1 @ F,0,0,1,0,2.6458333,0,1 @ F,0,0,1,0,2.6458333,0,1 @ F,0,0,1,0,2.6458333,0,1 @ F,0,0,1,0,2.6458333,0,1"
       radius="10"
       unit="px"
       method="auto"
       mode="F"
       chamfer_steps="1"
       flexible="false"
       use_knot_distance="true"
       apply_no_radius="true"
       apply_with_radius="true"
       only_selected="false"
       hide_knots="false" />
    <inkscape:path-effect
       effect="fillet_chamfer"
       id="path-effect42"
       is_visible="true"
       lpeversion="1"
       nodesatellites_param="F,0,0,1,0,2.6458333,0,1 @ F,0,0,1,0,2.6458333,0,1 @ F,0,0,1,0,2.6458333,0,1 @ F,0,0,1,0,2.6458333,0,1 @ F,0,0,1,0,2.6458333,0,1 @ F,0,0,1,0,2.6458333,0,1 @ F,0,0,1,0,2.6458333,0,1 @ F,0,0,1,0,2.6458333,0,1"
       radius="10"
       unit="px"
       method="auto"
       mode="F"
       chamfer_steps="1"
       flexible="false"
       use_knot_distance="true"
       apply_no_radius="true"
       apply_with_radius="true"
       only_selected="false"
       hide_knots="false" />
    <inkscape:path-effect
       effect="fillet_chamfer"
       id="path-effect43"
       is_visible="true"
       lpeversion="1"
       nodesatellites_param="F,0,0,1,0,2.6458333,0,1 @ F,0,0,1,0,2.6458333,0,1 @ F,0,0,1,0,2.6458333,0,1 @ F,0,0,1,0,2.6458333,0,1 @ F,0,0,1,0,2.6458333,0,1 @ F,0,0,1,0,2.6458333,0,1 @ F,0,0,1,0,2.6458333,0,1 @ F,0,0,1,0,2.6458333,0,1 @ F,0,0,1,0,2.6458333,0,1 @ F,0,0,1,0,2.6458333,0,1 @ F,0,0,1,0,2.6458333,0,1 @ F,0,0,1,0,2.6458333,0,1"
       radius="10"
       unit="px"
       method="auto"
       mode="F"
       chamfer_steps="1"
       flexible="false"
       use_knot_distance="true"
       apply_no_radius="true"
       apply_with_radius="true"
       only_selected="false"
       hide_knots="false" />
    <inkscape:path-effect
       effect="offset"
       id="path-effect54"
       is_visible="true"
       lpeversion="1.3"
       linejoin_type="miter-clip"
       unit="px"
       offset="6"
       miter_limit="15"
       attempt_force_join="false"
       update_on_knot_move="true" />
    <inkscape:path-effect
       effect="offset"
       id="path-effect52"
       is_visible="true"
       lpeversion="1.3"
       linejoin_type="round"
       unit="px"
       offset="0"
       miter_limit="4"
       attempt_force_join="false"
       update_on_knot_move="true" />
    <inkscape:path-effect
       effect="fillet_chamfer"
       id="path-effect44-7"
       is_visible="true"
       lpeversion="1"
       nodesatellites_param="F,0,0,1,0,2.6458333,0,1 @ F,0,0,1,0,2.6458333,0,1 @ F,0,0,1,0,2.6458333,0,1 @ F,0,0,1,0,2.6458333,0,1 @ F,0,0,1,0,2.6458333,0,1 @ F,0,0,1,0,2.6458333,0,1 @ F,0,0,1,0,2.6458333,0,1 @ F,0,0,1,0,2.6458333,0,1 @ F,0,0,1,0,2.6458333,0,1 @ F,0,0,1,0,2.6458333,0,1 @ F,0,0,1,0,2.6458333,0,1 @ F,0,0,1,0,2.6458333,0,1 @ F,0,0,1,0,2.6458333,0,1"
       radius="10"
       unit="px"
       method="auto"
       mode="F"
       chamfer_steps="1"
       flexible="false"
       use_knot_distance="true"
       apply_no_radius="true"
       apply_with_radius="true"
       only_selected="false"
       hide_knots="false" />
    <inkscape:path-effect
       effect="fillet_chamfer"
       id="path-effect41-5"
       is_visible="true"
       lpeversion="1"
       nodesatellites_param="F,0,0,1,0,2.6458333,0,1 @ F,0,0,1,0,2.6458333,0,1 @ F,0,0,1,0,2.6458333,0,1 @ F,0,0,1,0,2.6458333,0,1 @ F,0,0,1,0,2.6458333,0,1 @ F,0,0,1,0,2.6458333,0,1 @ F,0,0,1,0,2.6458333,0,1 @ F,0,0,1,0,2.6458333,0,1 @ F,0,0,1,0,2.6458333,0,1 @ F,0,0,1,0,2.6458333,0,1"
       radius="10"
       unit="px"
       method="auto"
       mode="F"
       chamfer_steps="1"
       flexible="false"
       use_knot_distance="true"
       apply_no_radius="true"
       apply_with_radius="true"
       only_selected="false"
       hide_knots="false" />
    <inkscape:path-effect
       effect="fillet_chamfer"
       id="path-effect42-3"
       is_visible="true"
       lpeversion="1"
       nodesatellites_param="F,0,0,1,0,2.6458333,0,1 @ F,0,0,1,0,2.6458333,0,1 @ F,0,0,1,0,2.6458333,0,1 @ F,0,0,1,0,2.6458333,0,1 @ F,0,0,1,0,2.6458333,0,1 @ F,0,0,1,0,2.6458333,0,1 @ F,0,0,1,0,2.6458333,0,1 @ F,0,0,1,0,2.6458333,0,1"
       radius="10"
       unit="px"
       method="auto"
       mode="F"
       chamfer_steps="1"
       flexible="false"
       use_knot_distance="true"
       apply_no_radius="true"
       apply_with_radius="true"
       only_selected="false"
       hide_knots="false" />
    <inkscape:path-effect
       effect="fillet_chamfer"
       id="path-effect43-5"
       is_visible="true"
       lpeversion="1"
       nodesatellites_param="F,0,0,1,0,2.6458333,0,1 @ F,0,0,1,0,2.6458333,0,1 @ F,0,0,1,0,2.6458333,0,1 @ F,0,0,1,0,2.6458333,0,1 @ F,0,0,1,0,2.6458333,0,1 @ F,0,0,1,0,2.6458333,0,1 @ F,0,0,1,0,2.6458333,0,1 @ F,0,0,1,0,2.6458333,0,1 @ F,0,0,1,0,2.6458333,0,1 @ F,0,0,1,0,2.6458333,0,1 @ F,0,0,1,0,2.6458333,0,1 @ F,0,0,1,0,2.6458333,0,1"
       radius="10"
       unit="px"
       method="auto"
       mode="F"
       chamfer_steps="1"
       flexible="false"
       use_knot_distance="true"
       apply_no_radius="true"
       apply_with_radius="true"
       only_selected="false"
       hide_knots="false" />
    <inkscape:path-effect
       effect="offset"
       id="path-effect54-6"
       is_visible="true"
       lpeversion="1.3"
       linejoin_type="miter-clip"
       unit="px"
       offset="6"
       miter_limit="15"
       attempt_force_join="false"
       update_on_knot_move="true" />
    <inkscape:path-effect
       effect="offset"
       id="path-effect52-2"
       is_visible="true"
       lpeversion="1.3"
       linejoin_type="round"
       unit="px"
       offset="0"
       miter_limit="4"
       attempt_force_join="false"
       update_on_knot_move="true" />
  </defs>
  <g
     inkscape:label="Layer 1"
     inkscape:groupmode="layer"
     id="layer1"
     transform="translate(-8.7498808,-108.81249)">
    <rect
       style="fill:none;fill-opacity:1;stroke:none;stroke-width:0.684539;stroke-linecap:butt;stroke-linejoin:miter;stroke-dasharray:none;stroke-opacity:1"
       id="rect61"
       width="192.50024"
       height="79.375"
       x="8.7498808"
       y="108.81249" />
    <g
       id="g12">
      <path
         id="text37"
         style="font-weight:900;font-size:67.7333px;font-family:'Noto Sans CJK JP';-inkscape-font-specification:'Noto Sans CJK JP, Heavy';fill:#ffffff;fill-opacity:1;stroke:none;stroke-width:0.529167"
         d="M 28.503714 123.0385 A 2.6458333 2.6458333 0 0 0 25.857881 125.68433 L 25.857881 150.18516 L 28.110973 147.86127 L 37.982205 137.67068 L 37.982205 125.68433 A 2.6458333 2.6458333 0 0 0 35.336372 123.0385 L 28.503714 123.0385 z M 56.17541 123.0385 L 53.399869 128.12087 L 45.518696 142.56857 L 50.856871 143.25018 L 51.320409 143.30909 A 3.9323126 3.9323126 0 0 1 52.103824 141.17641 L 64.162002 125.15258 A 1.3202664 1.3202664 0 0 0 63.10677 123.0385 L 56.17541 123.0385 z M 52.541523 146.67943 L 52.229914 147.01739 L 44.768871 155.09494 A 1.7298554 1.7298554 0 0 1 44.791092 155.13266 L 54.067011 171.20816 A 4.5815225 4.5815225 0 0 0 58.035245 173.50001 L 65.951557 173.50001 A 1.4997749 1.4997749 0 0 0 67.2383 171.22987 L 52.541523 146.67943 z M 25.857881 151.23522 L 25.857881 169.87336 L 26.944636 167.84765 L 35.253173 152.37107 L 29.462312 151.67189 L 25.857881 151.23522 z M 37.998742 162.4242 L 30.591442 170.44335 L 27.845356 173.41682 A 2.6458333 2.6458333 0 0 0 28.503714 173.50001 L 35.336372 173.50001 A 2.6458333 2.6458333 0 0 0 37.982205 170.85418 L 37.982205 162.93735 A 8.0552711 8.0552711 0 0 1 37.998742 162.4242 z " />
      <path
         style="font-weight:900;font-size:67.7333px;font-family:'Noto Sans CJK JP';-inkscape-font-specification:'Noto Sans CJK JP, Heavy';fill:#ffffff;fill-opacity:1;fill-rule:nonzero;stroke:none;stroke-width:0.529167"
         d="m 157.23312,173.49976 h 31.55525 a 2.6458333,2.6458333 0 0 0 2.64583,-2.64583 v -4.86833 a 2.6458333,2.6458333 0 0 0 -2.64583,-2.64583 h -16.65393 a 1.4249211,1.4249211 0 0 1 -1.18972,-2.20911 l 18.83017,-28.5679 a 8.8217134,8.8217134 0 0 0 1.45611,-4.85494 v -2.02354 a 2.6458333,2.6458333 0 0 0 -2.64583,-2.64583 h -29.25232 a 2.6458333,2.6458333 0 0 0 -2.64583,2.64583 v 4.8006 a 2.6458333,2.6458333 0 0 0 2.64583,2.64583 h 14.351 a 1.4265294,1.4265294 0 0 1 1.1918,2.21048 l -18.83433,28.63289 a 8.8368392,8.8368392 0 0 0 -1.45403,4.85631 v 2.02354 a 2.6458333,2.6458333 0 0 0 2.64583,2.64583 z"
         id="path39"
         inkscape:linked-fill="path40" />
      <path
         style="font-weight:900;font-size:67.7333px;font-family:'Noto Sans CJK JP';-inkscape-font-specification:'Noto Sans CJK JP, Heavy';fill:#ffffff;fill-opacity:1;stroke:none;stroke-width:0.529167"
         d="m 126.42651,173.49976 h 6.8326 a 2.6458333,2.6458333 0 0 0 2.64583,-2.64583 v -35.07739 a 2.6458333,2.6458333 0 0 1 2.64583,-2.64583 h 8.39047 a 2.6458333,2.6458333 0 0 0 2.64583,-2.64583 v -4.8006 a 2.6458333,2.6458333 0 0 0 -2.64583,-2.64583 h -34.12912 a 2.6458333,2.6458333 0 0 0 -2.64583,2.64583 v 4.8006 a 2.6458333,2.6458333 0 0 0 2.64583,2.64583 h 8.32273 a 2.6458333,2.6458333 0 0 1 2.64583,2.64583 v 35.07739 a 2.6458333,2.6458333 0 0 0 2.64583,2.64583 z"
         id="path38" />
      <path
         style="font-weight:900;font-size:67.7333px;font-family:'Noto Sans CJK JP';-inkscape-font-specification:'Noto Sans CJK JP, Heavy';fill:#ffffff;fill-opacity:1;stroke:none;stroke-width:0.529167"
         d="m 75.097123,173.49976 h 27.423517 a 2.6458333,2.6458333 0 0 0 2.64583,-2.64583 v -4.86833 a 2.6458333,2.6458333 0 0 0 -2.64583,-2.64583 H 87.221385 a 2.6458333,2.6458333 0 0 1 -2.64583,-2.64583 v -5.41021 a 2.6458333,2.6458333 0 0 1 2.64583,-2.64583 h 11.57393 a 2.6458333,2.6458333 0 0 0 2.645825,-2.64583 v -4.86833 a 2.6458333,2.6458333 0 0 0 -2.645825,-2.64583 h -11.57393 a 2.6458333,2.6458333 0 0 1 -2.64583,-2.64583 v -4.05554 a 2.6458333,2.6458333 0 0 1 2.64583,-2.64583 h 14.554185 a 2.6458333,2.6458333 0 0 0 2.64583,-2.64583 v -4.8006 a 2.6458333,2.6458333 0 0 0 -2.64583,-2.64583 H 75.097123 a 2.6458333,2.6458333 0 0 0 -2.645833,2.64583 v 45.16965 a 2.6458333,2.6458333 0 0 0 2.645833,2.64583 z"
         id="path37" />
      <path
         style="fill:none;fill-opacity:1;stroke-width:1.05833334;stroke-dasharray:none;stroke:#f6f7fa;stroke-opacity:1"
         d="m 58.068359,113.71289 -11.564453,11.93555 -21.689453,22.39062 -3.164062,3.26367 4.515625,0.54688 5.791015,0.69922 -8.308594,15.47656 -8.378906,15.61719 12.025391,-13.02149 21.638672,-23.42578 2.96289,-3.21484 -4.335937,-0.55274 -5.337891,-0.68164 7.88086,-14.44726 z"
         id="path52"
         inkscape:path-effect="#path-effect54-6"
         inkscape:original-d="m 39.714494,144.02597 8.997392,-16.48827 2.357986,-4.32151 -3.425134,3.53658 -21.69011,22.39085 -0.93646,0.96693 1.33654,0.16196 8.100217,0.97975 -9.407092,17.52335 -2.486269,4.63098 3.567047,-3.86129 21.637195,-23.42593 0.879533,-0.95249 -1.286028,-0.16436 -7.644817,-0.97655"
         transform="translate(3.2962769,-0.17774837)" />
    </g>
  </g>
</svg>
